<svg xmlns="http://www.w3.org/2000/svg" viewBox="-9.07 -39.99 355.44 83.87" width="355.4" height="83.9" role="img">
  <path d="M66 0V700H198V411H458V700H590V0H458V291H198V0Z" transform="translate(0.00,0.00) scale(0.04200,-0.04200)" fill="#11151c"/>
  <path d="M296 -14Q222 -14 165.5 17.5Q109 49 77.5 106.5Q46 164 46 242V254Q46 332 77.0 389.5Q108 447 164.0 478.5Q220 510 294 510Q367 510 421.0 477.5Q475 445 505.0 387.5Q535 330 535 254V211H174Q176 160 212.0 128.0Q248 96 300 96Q353 96 378.0 119.0Q403 142 416 170L519 116Q505 90 478.5 59.5Q452 29 408.0 7.5Q364 -14 296 -14ZM175 305H407Q403 348 372.5 374.0Q342 400 293 400Q242 400 212.0 374.0Q182 348 175 305Z" transform="translate(27.55,0.00) scale(0.04200,-0.04200)" fill="#11151c"/>
  <path d="M70 0V496H194V431H212Q224 457 257.0 480.5Q290 504 357 504Q415 504 458.5 477.5Q502 451 526.0 404.5Q550 358 550 296V0H424V286Q424 342 396.5 370.0Q369 398 318 398Q260 398 228.0 359.5Q196 321 196 252V0Z" transform="translate(51.79,0.00) scale(0.04200,-0.04200)" fill="#11151c"/>
  <path d="M70 0V496H194V431H212Q224 457 257.0 480.5Q290 504 357 504Q415 504 458.5 477.5Q502 451 526.0 404.5Q550 358 550 296V0H424V286Q424 342 396.5 370.0Q369 398 318 398Q260 398 228.0 359.5Q196 321 196 252V0Z" transform="translate(77.66,0.00) scale(0.04200,-0.04200)" fill="#11151c"/>
  <path d="M70 0V496H196V0ZM133 554Q99 554 75.5 576.0Q52 598 52 634Q52 670 75.5 692.0Q99 714 133 714Q168 714 191.0 692.0Q214 670 214 634Q214 598 191.0 576.0Q168 554 133 554Z" transform="translate(103.53,0.00) scale(0.04200,-0.04200)" fill="#11151c"/>
  <path d="M70 0V496H194V431H212Q224 457 257.0 480.5Q290 504 357 504Q415 504 458.5 477.5Q502 451 526.0 404.5Q550 358 550 296V0H424V286Q424 342 396.5 370.0Q369 398 318 398Q260 398 228.0 359.5Q196 321 196 252V0Z" transform="translate(114.70,0.00) scale(0.04200,-0.04200)" fill="#11151c"/>
  <path d="M46 246V262Q46 340 77.0 395.5Q108 451 159.5 480.5Q211 510 272 510Q340 510 375.0 486.0Q410 462 426 436H444V496H568V-88Q568 -139 538.0 -169.5Q508 -200 458 -200H126V-90H414Q442 -90 442 -60V69H424Q414 53 396.0 36.5Q378 20 348.0 9.0Q318 -2 272 -2Q211 -2 159.5 27.5Q108 57 77.0 112.5Q46 168 46 246ZM308 108Q366 108 405.0 145.0Q444 182 444 249V259Q444 327 405.5 363.5Q367 400 308 400Q250 400 211.0 363.5Q172 327 172 259V249Q172 182 211.0 145.0Q250 108 308 108Z" transform="translate(140.57,0.00) scale(0.04200,-0.04200)" fill="#11151c"/>
  <path d="M66 0V700H198V411H458V700H590V0H458V291H198V0Z" transform="translate(178.04,0.00) scale(0.04200,-0.04200)" fill="#11151c"/>
  <path d="M224 -14Q171 -14 129.0 4.5Q87 23 62.5 58.5Q38 94 38 145Q38 196 62.5 230.5Q87 265 130.5 282.5Q174 300 230 300H366V328Q366 363 344.0 385.5Q322 408 274 408Q227 408 204.0 386.5Q181 365 174 331L58 370Q70 408 96.5 439.5Q123 471 167.5 490.5Q212 510 276 510Q374 510 431.0 461.0Q488 412 488 319V134Q488 104 516 104H556V0H472Q435 0 411.0 18.0Q387 36 387 66V67H368Q364 55 350.0 35.5Q336 16 306.0 1.0Q276 -14 224 -14ZM246 88Q299 88 332.5 117.5Q366 147 366 196V206H239Q204 206 184.0 191.0Q164 176 164 149Q164 122 185.0 105.0Q206 88 246 88Z" transform="translate(205.59,0.00) scale(0.04200,-0.04200)" fill="#11151c"/>
  <path d="M70 0V700H196V0Z" transform="translate(229.87,0.00) scale(0.04200,-0.04200)" fill="#11151c"/>
  <path d="M152 0V392H26V496H152V588Q152 639 182.5 669.5Q213 700 262 700H392V596H306Q278 596 278 566V496H408V392H278V0Z" transform="translate(241.04,0.00) scale(0.04200,-0.04200)" fill="#11151c"/>
  <path d="M70 -200V496H194V436H212Q229 465 265.0 487.5Q301 510 368 510Q428 510 479.0 480.5Q530 451 561.0 394.0Q592 337 592 256V240Q592 159 561.0 102.0Q530 45 479.0 15.5Q428 -14 368 -14Q323 -14 292.5 -3.5Q262 7 243.5 23.5Q225 40 214 57H196V-200ZM330 96Q389 96 427.5 133.5Q466 171 466 243V253Q466 325 427.0 362.5Q388 400 330 400Q272 400 233.0 362.5Q194 325 194 253V243Q194 171 233.0 133.5Q272 96 330 96Z" transform="translate(259.35,0.00) scale(0.04200,-0.04200)" fill="#11151c"/>
  <path d="M224 -14Q171 -14 129.0 4.5Q87 23 62.5 58.5Q38 94 38 145Q38 196 62.5 230.5Q87 265 130.5 282.5Q174 300 230 300H366V328Q366 363 344.0 385.5Q322 408 274 408Q227 408 204.0 386.5Q181 365 174 331L58 370Q70 408 96.5 439.5Q123 471 167.5 490.5Q212 510 276 510Q374 510 431.0 461.0Q488 412 488 319V134Q488 104 516 104H556V0H472Q435 0 411.0 18.0Q387 36 387 66V67H368Q364 55 350.0 35.5Q336 16 306.0 1.0Q276 -14 224 -14ZM246 88Q299 88 332.5 117.5Q366 147 366 196V206H239Q204 206 184.0 191.0Q164 176 164 149Q164 122 185.0 105.0Q206 88 246 88Z" transform="translate(286.15,0.00) scale(0.04200,-0.04200)" fill="#11151c"/>
  <path d="M70 -200V496H194V436H212Q229 465 265.0 487.5Q301 510 368 510Q428 510 479.0 480.5Q530 451 561.0 394.0Q592 337 592 256V240Q592 159 561.0 102.0Q530 45 479.0 15.5Q428 -14 368 -14Q323 -14 292.5 -3.5Q262 7 243.5 23.5Q225 40 214 57H196V-200ZM330 96Q389 96 427.5 133.5Q466 171 466 243V253Q466 325 427.0 362.5Q388 400 330 400Q272 400 233.0 362.5Q194 325 194 253V243Q194 171 233.0 133.5Q272 96 330 96Z" transform="translate(310.42,0.00) scale(0.04200,-0.04200)" fill="#11151c"/>
  <path d="M665 -25Q498 -25 375.0 28.0Q252 81 182.5 179.5Q113 278 106 414H335Q342 333 387.5 280.0Q433 227 506.0 201.0Q579 175 664 175Q759 175 832.5 204.5Q906 234 949.0 288.5Q992 343 992 415Q992 480 954.5 521.5Q917 563 853.5 590.5Q790 618 709 639L535 687Q352 736 249.5 832.0Q147 928 147 1081Q147 1210 216.5 1306.5Q286 1403 405.5 1456.5Q525 1510 675 1510Q828 1510 944.5 1456.5Q1061 1403 1127.5 1310.0Q1194 1217 1197 1098H975Q964 1200 880.5 1256.0Q797 1312 670 1312Q580 1312 513.5 1284.0Q447 1256 410.5 1206.5Q374 1157 374 1094Q374 1023 417.5 979.5Q461 936 523.5 910.5Q586 885 643 870L788 832Q859 814 934.5 783.5Q1010 753 1074.0 704.5Q1138 656 1177.5 584.5Q1217 513 1217 412Q1217 286 1152.0 187.0Q1087 88 963.5 31.5Q840 -25 665 -25Z" transform="translate(0.00,30.00) scale(0.00879,-0.00879)" fill="#525a68"/>
  <path d="M133 -402 187 -223 212 -229Q269 -244 314.5 -237.0Q360 -230 393.5 -194.5Q427 -159 447 -87L471 -5L46 1118H284L505 483Q542 377 566.5 272.0Q591 167 620 63H552Q581 167 607.5 272.5Q634 378 671 483L896 1118H1132L646 -155Q612 -245 562.5 -305.0Q513 -365 445.0 -395.5Q377 -426 287 -426Q235 -426 194.0 -418.5Q153 -411 133 -402Z" transform="translate(11.63,30.00) scale(0.00879,-0.00879)" fill="#525a68"/>
  <path d="M549 -23Q428 -23 333.5 12.0Q239 47 178.5 115.5Q118 184 98 283L305 326Q328 239 391.0 197.0Q454 155 551 155Q657 155 720.0 199.5Q783 244 783 306Q783 360 744.5 395.0Q706 430 626 447L438 490Q282 525 206.0 602.0Q130 679 130 799Q130 899 186.0 974.0Q242 1049 339.0 1090.5Q436 1132 563 1132Q684 1132 770.0 1097.0Q856 1062 909.5 999.0Q963 936 986 853L789 810Q768 869 716.0 913.5Q664 958 565 958Q474 958 413.0 917.0Q352 876 352 813Q352 757 392.5 722.5Q433 688 525 667L705 627Q860 592 935.0 517.0Q1010 442 1010 325Q1010 223 951.5 144.5Q893 66 789.5 21.5Q686 -23 549 -23Z" transform="translate(21.98,30.00) scale(0.00879,-0.00879)" fill="#525a68"/>
  <path d="M626 1118V939H20V1118ZM183 1384H403V302Q403 235 431.5 203.5Q460 172 525 172Q542 172 570.0 176.0Q598 180 618 184L657 8Q622 -4 582.0 -9.5Q542 -15 503 -15Q351 -15 267.0 63.5Q183 142 183 284Z" transform="translate(31.68,30.00) scale(0.00879,-0.00879)" fill="#525a68"/>
  <path d="M630 -23Q465 -23 345.0 48.0Q225 119 160.5 248.0Q96 377 96 551Q96 723 159.5 854.0Q223 985 339.0 1058.5Q455 1132 611 1132Q707 1132 796.0 1100.5Q885 1069 956.0 1002.0Q1027 935 1068.5 828.5Q1110 722 1110 570V492H219V656H997L894 602Q894 705 862.0 783.5Q830 862 767.5 906.0Q705 950 611 950Q518 950 452.0 905.0Q386 860 351.5 786.5Q317 713 317 626V514Q317 399 356.5 319.5Q396 240 467.0 199.5Q538 159 632 159Q694 159 744.0 176.5Q794 194 830.5 229.5Q867 265 886 317L1093 268Q1066 182 1002.5 116.0Q939 50 844.5 13.5Q750 -23 630 -23Z" transform="translate(37.80,30.00) scale(0.00879,-0.00879)" fill="#525a68"/>
  <path d="M148 0V1118H357L363 859H346Q370 954 420.0 1015.0Q470 1076 537.0 1106.5Q604 1137 677 1137Q799 1137 874.0 1061.5Q949 986 975 851H947Q969 943 1023.0 1007.0Q1077 1071 1153.5 1104.0Q1230 1137 1317 1137Q1416 1137 1496.5 1094.0Q1577 1051 1624.0 966.0Q1671 881 1671 754V0H1451V732Q1451 844 1388.5 894.0Q1326 944 1241 944Q1172 944 1122.0 915.0Q1072 886 1045.0 834.5Q1018 783 1018 716V0H801V746Q801 836 743.5 890.0Q686 944 597 944Q536 944 483.5 915.5Q431 887 399.5 831.5Q368 776 368 695V0Z" transform="translate(48.38,30.00) scale(0.00879,-0.00879)" fill="#525a68"/>
  <path d="M549 -23Q428 -23 333.5 12.0Q239 47 178.5 115.5Q118 184 98 283L305 326Q328 239 391.0 197.0Q454 155 551 155Q657 155 720.0 199.5Q783 244 783 306Q783 360 744.5 395.0Q706 430 626 447L438 490Q282 525 206.0 602.0Q130 679 130 799Q130 899 186.0 974.0Q242 1049 339.0 1090.5Q436 1132 563 1132Q684 1132 770.0 1097.0Q856 1062 909.5 999.0Q963 936 986 853L789 810Q768 869 716.0 913.5Q664 958 565 958Q474 958 413.0 917.0Q352 876 352 813Q352 757 392.5 722.5Q433 688 525 667L705 627Q860 592 935.0 517.0Q1010 442 1010 325Q1010 223 951.5 144.5Q893 66 789.5 21.5Q686 -23 549 -23Z" transform="translate(64.36,30.00) scale(0.00879,-0.00879)" fill="#525a68"/>
  <path d="M165 0V1490H1103V1294H393V850H1052V655H393V196H1109V0Z" transform="translate(78.86,30.00) scale(0.00879,-0.00879)" fill="#525a68"/>
  <path d="M368 662V0H148V1118H358L360 844H337Q386 994 479.0 1063.0Q572 1132 704 1132Q818 1132 903.0 1084.0Q988 1036 1036.0 942.5Q1084 849 1084 710V0H864V683Q864 804 801.0 872.0Q738 940 628 940Q554 940 495.0 907.5Q436 875 402.0 813.0Q368 751 368 662Z" transform="translate(89.71,30.00) scale(0.00879,-0.00879)" fill="#525a68"/>
  <path d="M615 -442Q486 -442 391.0 -409.0Q296 -376 234.5 -321.0Q173 -266 141 -199L325 -112Q345 -144 378.5 -179.5Q412 -215 469.0 -240.0Q526 -265 615 -265Q743 -265 822.5 -204.5Q902 -144 902 -15V203H883Q863 166 827.5 123.0Q792 80 728.5 48.5Q665 17 563 17Q431 17 325.5 79.0Q220 141 158.0 263.0Q96 385 96 563Q96 741 157.5 868.5Q219 996 325.5 1064.0Q432 1132 566 1132Q669 1132 733.5 1098.0Q798 1064 834.5 1017.5Q871 971 890 936H906V1118H1121V-16Q1121 -163 1054.5 -257.5Q988 -352 873.5 -397.0Q759 -442 615 -442ZM614 200Q708 200 772.5 243.5Q837 287 870.0 369.5Q903 452 903 566Q903 679 870.0 764.0Q837 849 772.5 897.0Q708 945 614 945Q517 945 452.0 894.5Q387 844 354.0 758.5Q321 673 321 566Q321 457 354.0 374.5Q387 292 452.5 246.0Q518 200 614 200Z" transform="translate(100.54,30.00) scale(0.00879,-0.00879)" fill="#525a68"/>
  <path d="M148 0V1118H368V0ZM259 1289Q202 1289 161.5 1327.0Q121 1365 121 1419Q121 1474 161.5 1512.0Q202 1550 259 1550Q316 1550 357.0 1512.0Q398 1474 398 1419Q398 1365 357.0 1327.0Q316 1289 259 1289Z" transform="translate(111.69,30.00) scale(0.00879,-0.00879)" fill="#525a68"/>
  <path d="M368 662V0H148V1118H358L360 844H337Q386 994 479.0 1063.0Q572 1132 704 1132Q818 1132 903.0 1084.0Q988 1036 1036.0 942.5Q1084 849 1084 710V0H864V683Q864 804 801.0 872.0Q738 940 628 940Q554 940 495.0 907.5Q436 875 402.0 813.0Q368 751 368 662Z" transform="translate(116.23,30.00) scale(0.00879,-0.00879)" fill="#525a68"/>
  <path d="M630 -23Q465 -23 345.0 48.0Q225 119 160.5 248.0Q96 377 96 551Q96 723 159.5 854.0Q223 985 339.0 1058.5Q455 1132 611 1132Q707 1132 796.0 1100.5Q885 1069 956.0 1002.0Q1027 935 1068.5 828.5Q1110 722 1110 570V492H219V656H997L894 602Q894 705 862.0 783.5Q830 862 767.5 906.0Q705 950 611 950Q518 950 452.0 905.0Q386 860 351.5 786.5Q317 713 317 626V514Q317 399 356.5 319.5Q396 240 467.0 199.5Q538 159 632 159Q694 159 744.0 176.5Q794 194 830.5 229.5Q867 265 886 317L1093 268Q1066 182 1002.5 116.0Q939 50 844.5 13.5Q750 -23 630 -23Z" transform="translate(127.05,30.00) scale(0.00879,-0.00879)" fill="#525a68"/>
  <path d="M630 -23Q465 -23 345.0 48.0Q225 119 160.5 248.0Q96 377 96 551Q96 723 159.5 854.0Q223 985 339.0 1058.5Q455 1132 611 1132Q707 1132 796.0 1100.5Q885 1069 956.0 1002.0Q1027 935 1068.5 828.5Q1110 722 1110 570V492H219V656H997L894 602Q894 705 862.0 783.5Q830 862 767.5 906.0Q705 950 611 950Q518 950 452.0 905.0Q386 860 351.5 786.5Q317 713 317 626V514Q317 399 356.5 319.5Q396 240 467.0 199.5Q538 159 632 159Q694 159 744.0 176.5Q794 194 830.5 229.5Q867 265 886 317L1093 268Q1066 182 1002.5 116.0Q939 50 844.5 13.5Q750 -23 630 -23Z" transform="translate(137.63,30.00) scale(0.00879,-0.00879)" fill="#525a68"/>
  <path d="M148 0V1118H361V938H373Q404 1030 481.0 1082.0Q558 1134 656 1134Q677 1134 704.0 1132.5Q731 1131 749 1128V918Q737 922 703.0 926.0Q669 930 634 930Q558 930 497.0 898.0Q436 866 402.0 809.5Q368 753 368 679V0Z" transform="translate(148.20,30.00) scale(0.00879,-0.00879)" fill="#525a68"/>
  <path d="M1035 98 197 935 336 1076 1174 237ZM336 98 197 237 1035 1076 1174 935Z" transform="translate(159.96,30.00) scale(0.00879,-0.00879)" fill="#525a68"/>
  <path d="M51 0 581 1490H861L1401 0H1154L864 829Q830 930 789.5 1067.0Q749 1204 696 1396H742Q691 1202 650.5 1063.5Q610 925 579 829L298 0ZM338 393V583H1113V393Z" transform="translate(176.77,30.00) scale(0.00879,-0.00879)" fill="#525a68"/>
  <path d="M393 1490V0H165V1490Z" transform="translate(189.54,30.00) scale(0.00879,-0.00879)" fill="#525a68"/>
  <path d="M311 560Q249 560 206.0 603.0Q163 646 163 707Q163 769 206.0 811.5Q249 854 311 854Q372 854 415.0 811.5Q458 769 458 707Q458 646 415.0 603.0Q372 560 311 560Z" transform="translate(220.22,30.00) scale(0.00879,-0.00879)" fill="#525a68"/>
  <path d="M368 662V0H148V1490H366V844H337Q386 994 479.0 1063.0Q572 1132 704 1132Q818 1132 903.5 1084.0Q989 1036 1036.5 942.5Q1084 849 1084 710V0H864V683Q864 804 801.0 872.0Q738 940 628 940Q554 940 495.0 907.5Q436 875 402.0 813.0Q368 751 368 662Z" transform="translate(251.46,30.00) scale(0.00879,-0.00879)" fill="#1f5fd0"/>
  <path d="M461 -25Q355 -25 269.0 14.5Q183 54 133.0 130.0Q83 206 83 316Q83 411 119.5 472.0Q156 533 218.5 569.0Q281 605 357.5 623.0Q434 641 513 650Q612 662 674.0 669.5Q736 677 765.5 694.5Q795 712 795 751V757Q795 820 771.0 863.0Q747 906 699.5 929.5Q652 953 581 953Q508 953 455.5 930.5Q403 908 370.5 873.0Q338 838 322 800L115 854Q153 954 224.0 1015.0Q295 1076 387.0 1104.0Q479 1132 577 1132Q645 1132 721.0 1116.0Q797 1100 864.0 1058.0Q931 1016 973.0 940.0Q1015 864 1015 742V0H802V153H791Q769 110 726.0 69.0Q683 28 617.5 1.5Q552 -25 461 -25ZM510 152Q600 152 664.0 187.0Q728 222 762.0 280.0Q796 338 796 403V546Q784 534 750.5 524.5Q717 515 674.0 507.5Q631 500 591.0 495.0Q551 490 525 487Q463 479 411.5 460.0Q360 441 329.5 406.0Q299 371 299 313Q299 260 326.5 224.0Q354 188 401.0 170.0Q448 152 510 152Z" transform="translate(262.29,30.00) scale(0.00879,-0.00879)" fill="#1f5fd0"/>
  <path d="M368 1490V0H148V1490Z" transform="translate(272.51,30.00) scale(0.00879,-0.00879)" fill="#1f5fd0"/>
  <path d="M702 1118V939H20V1118ZM232 0V1246Q232 1350 278.5 1420.0Q325 1490 401.0 1525.0Q477 1560 565 1560Q632 1560 679.5 1549.0Q727 1538 749 1530L698 1352Q682 1357 658.5 1362.5Q635 1368 600 1368Q522 1368 487.0 1329.0Q452 1290 452 1216V0Z" transform="translate(277.05,30.00) scale(0.00879,-0.00879)" fill="#1f5fd0"/>
  <path d="M148 -418V1118H362V936H380Q400 971 435.5 1017.0Q471 1063 534.5 1097.5Q598 1132 703 1132Q837 1132 942.5 1064.0Q1048 996 1109.0 867.0Q1170 738 1170 556Q1170 376 1110.0 246.5Q1050 117 944.5 47.5Q839 -22 703 -22Q602 -22 537.5 12.5Q473 47 436.5 93.0Q400 139 380 175H368V-418ZM654 165Q750 165 815.0 217.0Q880 269 912.5 358.0Q945 447 945 558Q945 668 912.5 755.5Q880 843 815.5 894.0Q751 945 654 945Q560 945 495.0 896.5Q430 848 397.0 761.5Q364 675 364 558Q364 442 397.5 353.5Q431 265 496.0 215.0Q561 165 654 165Z" transform="translate(283.88,30.00) scale(0.00879,-0.00879)" fill="#1f5fd0"/>
  <path d="M461 -25Q355 -25 269.0 14.5Q183 54 133.0 130.0Q83 206 83 316Q83 411 119.5 472.0Q156 533 218.5 569.0Q281 605 357.5 623.0Q434 641 513 650Q612 662 674.0 669.5Q736 677 765.5 694.5Q795 712 795 751V757Q795 820 771.0 863.0Q747 906 699.5 929.5Q652 953 581 953Q508 953 455.5 930.5Q403 908 370.5 873.0Q338 838 322 800L115 854Q153 954 224.0 1015.0Q295 1076 387.0 1104.0Q479 1132 577 1132Q645 1132 721.0 1116.0Q797 1100 864.0 1058.0Q931 1016 973.0 940.0Q1015 864 1015 742V0H802V153H791Q769 110 726.0 69.0Q683 28 617.5 1.5Q552 -25 461 -25ZM510 152Q600 152 664.0 187.0Q728 222 762.0 280.0Q796 338 796 403V546Q784 534 750.5 524.5Q717 515 674.0 507.5Q631 500 591.0 495.0Q551 490 525 487Q463 479 411.5 460.0Q360 441 329.5 406.0Q299 371 299 313Q299 260 326.5 224.0Q354 188 401.0 170.0Q448 152 510 152Z" transform="translate(295.00,30.00) scale(0.00879,-0.00879)" fill="#1f5fd0"/>
  <path d="M148 -418V1118H362V936H380Q400 971 435.5 1017.0Q471 1063 534.5 1097.5Q598 1132 703 1132Q837 1132 942.5 1064.0Q1048 996 1109.0 867.0Q1170 738 1170 556Q1170 376 1110.0 246.5Q1050 117 944.5 47.5Q839 -22 703 -22Q602 -22 537.5 12.5Q473 47 436.5 93.0Q400 139 380 175H368V-418ZM654 165Q750 165 815.0 217.0Q880 269 912.5 358.0Q945 447 945 558Q945 668 912.5 755.5Q880 843 815.5 894.0Q751 945 654 945Q560 945 495.0 896.5Q430 848 397.0 761.5Q364 675 364 558Q364 442 397.5 353.5Q431 265 496.0 215.0Q561 165 654 165Z" transform="translate(305.23,30.00) scale(0.00879,-0.00879)" fill="#1f5fd0"/>
  <path d="M311 -15Q249 -15 206.0 28.0Q163 71 163 132Q163 194 206.0 236.5Q249 279 311 279Q372 279 415.0 236.5Q458 194 458 132Q458 71 415.0 28.0Q372 -15 311 -15Z" transform="translate(316.35,30.00) scale(0.00879,-0.00879)" fill="#1f5fd0"/>
  <path d="M148 0V1118H368V0ZM259 1289Q202 1289 161.5 1327.0Q121 1365 121 1419Q121 1474 161.5 1512.0Q202 1550 259 1550Q316 1550 357.0 1512.0Q398 1474 398 1419Q398 1365 357.0 1327.0Q316 1289 259 1289Z" transform="translate(321.81,30.00) scale(0.00879,-0.00879)" fill="#1f5fd0"/>
  <path d="M618 -23Q461 -23 343.5 49.0Q226 121 161.0 251.0Q96 381 96 553Q96 727 161.0 857.5Q226 988 343.5 1060.0Q461 1132 618 1132Q776 1132 893.5 1060.0Q1011 988 1076.0 857.5Q1141 727 1141 553Q1141 381 1076.0 251.0Q1011 121 893.5 49.0Q776 -23 618 -23ZM618 163Q720 163 786.5 216.5Q853 270 885.5 358.5Q918 447 918 553Q918 660 885.5 749.5Q853 839 786.5 892.5Q720 946 618 946Q517 946 451.0 892.5Q385 839 352.5 750.0Q320 661 320 553Q320 447 352.5 358.5Q385 270 451.0 216.5Q517 163 618 163Z" transform="translate(326.35,30.00) scale(0.00879,-0.00879)" fill="#1f5fd0"/>
</svg>
