<svg xmlns="http://www.w3.org/2000/svg" viewBox="-6.22 -48.56 270.74 69.36" width="270.7" height="69.4" role="img">
  <path d="M70 0V700H196V435H214Q222 451 239.0 467.0Q256 483 284.5 493.5Q313 504 357 504Q415 504 458.5 477.5Q502 451 526.0 404.5Q550 358 550 296V0H424V286Q424 342 396.5 370.0Q369 398 318 398Q260 398 228.0 359.5Q196 321 196 252V0Z" transform="translate(0.00,0.00) scale(0.05400,-0.05400)" fill="#11151c"/>
  <path d="M224 -14Q171 -14 129.0 4.5Q87 23 62.5 58.5Q38 94 38 145Q38 196 62.5 230.5Q87 265 130.5 282.5Q174 300 230 300H366V328Q366 363 344.0 385.5Q322 408 274 408Q227 408 204.0 386.5Q181 365 174 331L58 370Q70 408 96.5 439.5Q123 471 167.5 490.5Q212 510 276 510Q374 510 431.0 461.0Q488 412 488 319V134Q488 104 516 104H556V0H472Q435 0 411.0 18.0Q387 36 387 66V67H368Q364 55 350.0 35.5Q336 16 306.0 1.0Q276 -14 224 -14ZM246 88Q299 88 332.5 117.5Q366 147 366 196V206H239Q204 206 184.0 191.0Q164 176 164 149Q164 122 185.0 105.0Q206 88 246 88Z" transform="translate(32.26,0.00) scale(0.05400,-0.05400)" fill="#11151c"/>
  <path d="M70 0V700H196V0Z" transform="translate(62.48,0.00) scale(0.05400,-0.05400)" fill="#11151c"/>
  <path d="M152 0V392H26V496H152V588Q152 639 182.5 669.5Q213 700 262 700H392V596H306Q278 596 278 566V496H408V392H278V0Z" transform="translate(75.84,0.00) scale(0.05400,-0.05400)" fill="#11151c"/>
  <path d="M70 -200V496H194V436H212Q229 465 265.0 487.5Q301 510 368 510Q428 510 479.0 480.5Q530 451 561.0 394.0Q592 337 592 256V240Q592 159 561.0 102.0Q530 45 479.0 15.5Q428 -14 368 -14Q323 -14 292.5 -3.5Q262 7 243.5 23.5Q225 40 214 57H196V-200ZM330 96Q389 96 427.5 133.5Q466 171 466 243V253Q466 325 427.0 362.5Q388 400 330 400Q272 400 233.0 362.5Q194 325 194 253V243Q194 171 233.0 133.5Q272 96 330 96Z" transform="translate(98.38,0.00) scale(0.05400,-0.05400)" fill="#11151c"/>
  <path d="M224 -14Q171 -14 129.0 4.5Q87 23 62.5 58.5Q38 94 38 145Q38 196 62.5 230.5Q87 265 130.5 282.5Q174 300 230 300H366V328Q366 363 344.0 385.5Q322 408 274 408Q227 408 204.0 386.5Q181 365 174 331L58 370Q70 408 96.5 439.5Q123 471 167.5 490.5Q212 510 276 510Q374 510 431.0 461.0Q488 412 488 319V134Q488 104 516 104H556V0H472Q435 0 411.0 18.0Q387 36 387 66V67H368Q364 55 350.0 35.5Q336 16 306.0 1.0Q276 -14 224 -14ZM246 88Q299 88 332.5 117.5Q366 147 366 196V206H239Q204 206 184.0 191.0Q164 176 164 149Q164 122 185.0 105.0Q206 88 246 88Z" transform="translate(131.84,0.00) scale(0.05400,-0.05400)" fill="#11151c"/>
  <path d="M70 -200V496H194V436H212Q229 465 265.0 487.5Q301 510 368 510Q428 510 479.0 480.5Q530 451 561.0 394.0Q592 337 592 256V240Q592 159 561.0 102.0Q530 45 479.0 15.5Q428 -14 368 -14Q323 -14 292.5 -3.5Q262 7 243.5 23.5Q225 40 214 57H196V-200ZM330 96Q389 96 427.5 133.5Q466 171 466 243V253Q466 325 427.0 362.5Q388 400 330 400Q272 400 233.0 362.5Q194 325 194 253V243Q194 171 233.0 133.5Q272 96 330 96Z" transform="translate(162.05,0.00) scale(0.05400,-0.05400)" fill="#11151c"/>
  <path d="M150 -14Q109 -14 81.5 12.5Q54 39 54 81Q54 123 81.5 149.5Q109 176 150 176Q190 176 217.0 149.5Q244 123 244 81Q244 39 217.0 12.5Q190 -14 150 -14Z" transform="translate(195.50,0.00) scale(0.05400,-0.05400)" fill="#11151c"/>
  <path d="M70 0V496H196V0ZM133 554Q99 554 75.5 576.0Q52 598 52 634Q52 670 75.5 692.0Q99 714 133 714Q168 714 191.0 692.0Q214 670 214 634Q214 598 191.0 576.0Q168 554 133 554Z" transform="translate(210.59,0.00) scale(0.05400,-0.05400)" fill="#11151c"/>
  <path d="M306 -14Q232 -14 173.0 16.0Q114 46 80.0 103.0Q46 160 46 240V256Q46 336 80.0 393.0Q114 450 173.0 480.0Q232 510 306 510Q380 510 439.0 480.0Q498 450 532.0 393.0Q566 336 566 256V240Q566 160 532.0 103.0Q498 46 439.0 16.0Q380 -14 306 -14ZM306 98Q364 98 402.0 135.5Q440 173 440 243V253Q440 323 402.5 360.5Q365 398 306 398Q248 398 210.0 360.5Q172 323 172 253V243Q172 173 210.0 135.5Q248 98 306 98Z" transform="translate(223.96,0.00) scale(0.05400,-0.05400)" fill="#11151c"/>
</svg>
